<svg xmlns="http://www.w3.org/2000/svg" width="128" height="128" viewBox="0 0 128 128" role="img" aria-label="Pregador IA">
  <rect width="128" height="128" rx="24" fill="#1f6f5f" />
  <path d="M64 24c-6.627 0-12 5.373-12 12v10H40c-6.627 0-12 5.373-12 12v34c0 6.627 5.373 12 12 12h48c6.627 0 12-5.373 12-12V58c0-6.627-5.373-12-12-12H76V36c0-6.627-5.373-12-12-12Zm0 8c2.209 0 4 1.791 4 4v10H60V36c0-2.209 1.791-4 4-4Zm-24 22h48c2.209 0 4 1.791 4 4v34c0 2.209-1.791 4-4 4H40c-2.209 0-4-1.791-4-4V58c0-2.209 1.791-4 4-4Zm20 8v8h-8v8h8v8h8v-8h8v-8h-8v-8h-8Z" fill="#f5f2e8" />
</svg>
